<mxfile host="drawio-plugin" modified="2023-09-06T00:36:00.651Z" agent="5.0 (X11; Linux x86_64) AppleWebKit/537.36 (KHTML, like Gecko) Chrome/111.0.0.0 Safari/537.36" etag="6Zb1EyVmAzucmu77qLj4" version="20.5.3" type="embed" pages="3"><diagram name="Page-1" id="UYIYtloDD2kforgpVg_j"><mxGraphModel dx="411" dy="732" grid="1" gridSize="10" guides="1" tooltips="1" connect="1" arrows="1" fold="1" page="1" pageScale="1" pageWidth="850" pageHeight="1100" math="0" shadow="0"><root><mxCell id="0"/><mxCell id="1" parent="0"/><mxCell id="eq8CrjYM-X_9wwln7rvy-5" value="ITENS OBRIGATÓRIOS" style="swimlane;fontStyle=0;childLayout=stackLayout;horizontal=1;startSize=30;horizontalStack=0;resizeParent=1;resizeParentMax=0;resizeLast=0;collapsible=1;marginBottom=0;whiteSpace=wrap;html=1;" parent="1" vertex="1"><mxGeometry x="40" y="40" width="280" height="200" as="geometry"><mxRectangle x="40" y="40" width="170" height="30" as="alternateBounds"/></mxGeometry></mxCell><mxCell id="eq8CrjYM-X_9wwln7rvy-6" value="Cadastro de Veículo" style="text;strokeColor=none;fillColor=none;align=left;verticalAlign=middle;spacingLeft=4;spacingRight=4;overflow=hidden;points=[[0,0.5],[1,0.5]];portConstraint=eastwest;rotatable=0;whiteSpace=wrap;html=1;" parent="eq8CrjYM-X_9wwln7rvy-5" vertex="1"><mxGeometry y="30" width="280" height="30" as="geometry"/></mxCell><mxCell id="eq8CrjYM-X_9wwln7rvy-7" value="Alteração de Cadastro de Veículo" style="text;strokeColor=none;fillColor=none;align=left;verticalAlign=middle;spacingLeft=4;spacingRight=4;overflow=hidden;points=[[0,0.5],[1,0.5]];portConstraint=eastwest;rotatable=0;whiteSpace=wrap;html=1;" parent="eq8CrjYM-X_9wwln7rvy-5" vertex="1"><mxGeometry y="60" width="280" height="30" as="geometry"/></mxCell><mxCell id="eq8CrjYM-X_9wwln7rvy-8" value="Buscar um veículo cadastrado por nome (modelo)&lt;br&gt;Cadastro de cliente (PF e PJ)&lt;br&gt;Alterar cliente (PF e PJ)&lt;br&gt;Alugar um veículo (PF e PJ)&lt;br&gt;Devolver veículo (PF e PJ)" style="text;strokeColor=none;fillColor=none;align=left;verticalAlign=middle;spacingLeft=4;spacingRight=4;overflow=hidden;points=[[0,0.5],[1,0.5]];portConstraint=eastwest;rotatable=0;whiteSpace=wrap;html=1;" parent="eq8CrjYM-X_9wwln7rvy-5" vertex="1"><mxGeometry y="90" width="280" height="110" as="geometry"/></mxCell><mxCell id="eq8CrjYM-X_9wwln7rvy-9" value="REGRAS" style="swimlane;fontStyle=0;childLayout=stackLayout;horizontal=1;startSize=30;horizontalStack=0;resizeParent=1;resizeParentMax=0;resizeLast=0;collapsible=1;marginBottom=0;whiteSpace=wrap;html=1;" parent="1" vertex="1"><mxGeometry x="360" y="40" width="270" height="250" as="geometry"/></mxCell><mxCell id="eq8CrjYM-X_9wwln7rvy-10" value="Não repetir veículos&lt;br&gt;Tipos de veículo: PEQUENO, MÉDIO, SUV&lt;br&gt;Aluguel e devolução com local, data e horário&lt;br&gt;Aluguel em horas quebradas conta como diária&lt;br&gt;Veículos alugados não podem estar disponíveis&lt;br&gt;Clientes não podem ser duplicados (CPF e CNPJ)&lt;br&gt;&lt;div&gt;Devolução:&lt;/div&gt;&lt;div&gt;&lt;span style=&quot;white-space: pre;&quot;&gt;&#9;&lt;/span&gt;PF: tempo &amp;gt; 5 dias : desconto 5%&lt;/div&gt;&lt;div&gt;&lt;span style=&quot;white-space: pre;&quot;&gt;&#9;&lt;/span&gt;PJ: tempo &amp;gt; 3 dias : desconto 10%&lt;/div&gt;&lt;div&gt;&lt;br&gt;&lt;/div&gt;&lt;div&gt;PEQUENO : 100R$/dia&lt;/div&gt;&lt;div&gt;MEDIO : 150R$/dia&lt;/div&gt;&lt;div&gt;SUV : 200R$/dia&lt;br&gt;&lt;/div&gt;" style="text;strokeColor=none;fillColor=none;align=left;verticalAlign=middle;spacingLeft=4;spacingRight=4;overflow=hidden;points=[[0,0.5],[1,0.5]];portConstraint=eastwest;rotatable=0;whiteSpace=wrap;html=1;" parent="eq8CrjYM-X_9wwln7rvy-9" vertex="1"><mxGeometry y="30" width="270" height="220" as="geometry"/></mxCell><mxCell id="eq8CrjYM-X_9wwln7rvy-13" value="&amp;nbsp;" style="text;whiteSpace=wrap;html=1;" parent="1" vertex="1"><mxGeometry x="300" y="260" width="40" height="40" as="geometry"/></mxCell><mxCell id="eq8CrjYM-X_9wwln7rvy-49" value="Locadora de Carros" style="swimlane;whiteSpace=wrap;html=1;" parent="1" vertex="1"><mxGeometry x="40" y="320" width="650" height="460" as="geometry"/></mxCell><mxCell id="eq8CrjYM-X_9wwln7rvy-25" value="Física" style="rounded=0;whiteSpace=wrap;html=1;" parent="eq8CrjYM-X_9wwln7rvy-49" vertex="1"><mxGeometry x="30" y="380" width="120" height="60" as="geometry"/></mxCell><mxCell id="eq8CrjYM-X_9wwln7rvy-42" value="Cliente" style="rounded=1;whiteSpace=wrap;html=1;arcSize=50;" parent="eq8CrjYM-X_9wwln7rvy-49" vertex="1"><mxGeometry x="270" y="240" width="120" height="60" as="geometry"/></mxCell><mxCell id="eq8CrjYM-X_9wwln7rvy-27" value="ClienteFisico" style="rounded=0;whiteSpace=wrap;html=1;" parent="eq8CrjYM-X_9wwln7rvy-49" vertex="1"><mxGeometry x="190" y="380" width="120" height="60" as="geometry"/></mxCell><mxCell id="eq8CrjYM-X_9wwln7rvy-33" value="ClienteJuridico" style="rounded=0;whiteSpace=wrap;html=1;" parent="eq8CrjYM-X_9wwln7rvy-49" vertex="1"><mxGeometry x="350" y="380" width="120" height="60" as="geometry"/></mxCell><mxCell id="eq8CrjYM-X_9wwln7rvy-26" value="&lt;div&gt;Jurídica&lt;/div&gt;" style="rounded=0;whiteSpace=wrap;html=1;" parent="eq8CrjYM-X_9wwln7rvy-49" vertex="1"><mxGeometry x="510" y="380" width="120" height="60" as="geometry"/></mxCell><mxCell id="eq8CrjYM-X_9wwln7rvy-32" style="edgeStyle=orthogonalEdgeStyle;rounded=0;orthogonalLoop=1;jettySize=auto;html=1;entryX=0;entryY=0.5;entryDx=0;entryDy=0;" parent="eq8CrjYM-X_9wwln7rvy-49" source="eq8CrjYM-X_9wwln7rvy-25" target="eq8CrjYM-X_9wwln7rvy-27" edge="1"><mxGeometry relative="1" as="geometry"/></mxCell><mxCell id="eq8CrjYM-X_9wwln7rvy-43" style="edgeStyle=orthogonalEdgeStyle;rounded=0;orthogonalLoop=1;jettySize=auto;html=1;" parent="eq8CrjYM-X_9wwln7rvy-49" source="eq8CrjYM-X_9wwln7rvy-27" target="eq8CrjYM-X_9wwln7rvy-42" edge="1"><mxGeometry relative="1" as="geometry"/></mxCell><mxCell id="eq8CrjYM-X_9wwln7rvy-44" style="edgeStyle=orthogonalEdgeStyle;rounded=0;orthogonalLoop=1;jettySize=auto;html=1;" parent="eq8CrjYM-X_9wwln7rvy-49" source="eq8CrjYM-X_9wwln7rvy-33" target="eq8CrjYM-X_9wwln7rvy-42" edge="1"><mxGeometry relative="1" as="geometry"/></mxCell><mxCell id="eq8CrjYM-X_9wwln7rvy-37" style="edgeStyle=orthogonalEdgeStyle;rounded=0;orthogonalLoop=1;jettySize=auto;html=1;entryX=1;entryY=0.5;entryDx=0;entryDy=0;" parent="eq8CrjYM-X_9wwln7rvy-49" source="eq8CrjYM-X_9wwln7rvy-26" target="eq8CrjYM-X_9wwln7rvy-33" edge="1"><mxGeometry relative="1" as="geometry"/></mxCell><mxCell id="eq8CrjYM-X_9wwln7rvy-40" value="Veículo" style="rounded=1;whiteSpace=wrap;html=1;arcSize=50;" parent="eq8CrjYM-X_9wwln7rvy-49" vertex="1"><mxGeometry x="510" y="80" width="120" height="60" as="geometry"/></mxCell><mxCell id="eq8CrjYM-X_9wwln7rvy-38" value="Carro" style="rounded=0;whiteSpace=wrap;html=1;" parent="eq8CrjYM-X_9wwln7rvy-49" vertex="1"><mxGeometry x="510" y="220" width="120" height="60" as="geometry"/></mxCell><mxCell id="eq8CrjYM-X_9wwln7rvy-41" style="edgeStyle=orthogonalEdgeStyle;rounded=0;orthogonalLoop=1;jettySize=auto;html=1;entryX=0.5;entryY=1;entryDx=0;entryDy=0;" parent="eq8CrjYM-X_9wwln7rvy-49" source="eq8CrjYM-X_9wwln7rvy-38" target="eq8CrjYM-X_9wwln7rvy-40" edge="1"><mxGeometry relative="1" as="geometry"/></mxCell><mxCell id="eq8CrjYM-X_9wwln7rvy-45" value="Cadastrador" style="rounded=0;whiteSpace=wrap;html=1;" parent="eq8CrjYM-X_9wwln7rvy-49" vertex="1"><mxGeometry x="20" y="50" width="120" height="60" as="geometry"/></mxCell><mxCell id="eq8CrjYM-X_9wwln7rvy-50" value="Buscador" style="rounded=0;whiteSpace=wrap;html=1;" parent="eq8CrjYM-X_9wwln7rvy-49" vertex="1"><mxGeometry x="20" y="130" width="120" height="60" as="geometry"/></mxCell><mxCell id="eq8CrjYM-X_9wwln7rvy-51" value="Modificador" style="rounded=0;whiteSpace=wrap;html=1;" parent="eq8CrjYM-X_9wwln7rvy-49" vertex="1"><mxGeometry x="160" y="50" width="120" height="60" as="geometry"/></mxCell><mxCell id="eq8CrjYM-X_9wwln7rvy-54" value="Sistema" style="rounded=0;whiteSpace=wrap;html=1;" parent="eq8CrjYM-X_9wwln7rvy-49" vertex="1"><mxGeometry x="160" y="130" width="120" height="60" as="geometry"/></mxCell><mxCell id="eq8CrjYM-X_9wwln7rvy-55" value="UI" style="rounded=0;whiteSpace=wrap;html=1;" parent="eq8CrjYM-X_9wwln7rvy-49" vertex="1"><mxGeometry x="300" y="50" width="120" height="60" as="geometry"/></mxCell></root></mxGraphModel></diagram><diagram id="XgNp5YjTy3mVUqt5_UNM" name="Page-2">&#xa;    <mxGraphModel dx="1301" dy="1937" grid="1" gridSize="10" guides="1" tooltips="1" connect="1" arrows="1" fold="1" page="1" pageScale="1" pageWidth="850" pageHeight="1100" math="0" shadow="0">&#xa;      <root>&#xa;        <mxCell id="0"/>&#xa;        <mxCell id="1" parent="0"/>&#xa;        <mxCell id="bJzWxstoT6raJdL48ddy-1" value="Cadastrador" style="swimlane;whiteSpace=wrap;html=1;" vertex="1" parent="1">&#xa;          <mxGeometry x="40" y="40" width="330" height="490" as="geometry"/>&#xa;        </mxCell>&#xa;        <mxCell id="bJzWxstoT6raJdL48ddy-22" value="Lista de Veículos" style="rounded=0;whiteSpace=wrap;html=1;" vertex="1" parent="bJzWxstoT6raJdL48ddy-1">&#xa;          <mxGeometry x="20" y="40" width="120" height="60" as="geometry"/>&#xa;        </mxCell>&#xa;        <mxCell id="bJzWxstoT6raJdL48ddy-23" value="Lista de Clientes" style="rounded=0;whiteSpace=wrap;html=1;" vertex="1" parent="bJzWxstoT6raJdL48ddy-1">&#xa;          <mxGeometry x="150" y="40" width="120" height="60" as="geometry"/>&#xa;        </mxCell>&#xa;        <mxCell id="bJzWxstoT6raJdL48ddy-25" value="CadastrarVeiculo" style="swimlane;whiteSpace=wrap;html=1;" vertex="1" parent="bJzWxstoT6raJdL48ddy-1">&#xa;          <mxGeometry x="20" y="110" width="290" height="120" as="geometry"/>&#xa;        </mxCell>&#xa;        <mxCell id="bJzWxstoT6raJdL48ddy-30" value="Lista de Veículos" style="rounded=0;whiteSpace=wrap;html=1;" vertex="1" parent="bJzWxstoT6raJdL48ddy-25">&#xa;          <mxGeometry x="20" y="40" width="120" height="60" as="geometry"/>&#xa;        </mxCell>&#xa;        <mxCell id="bJzWxstoT6raJdL48ddy-31" value="Novo Veiculo" style="rounded=0;whiteSpace=wrap;html=1;" vertex="1" parent="bJzWxstoT6raJdL48ddy-25">&#xa;          <mxGeometry x="155" y="40" width="120" height="60" as="geometry"/>&#xa;        </mxCell>&#xa;        <mxCell id="bJzWxstoT6raJdL48ddy-28" value="CadastrarClienteFisico" style="swimlane;whiteSpace=wrap;html=1;" vertex="1" parent="bJzWxstoT6raJdL48ddy-1">&#xa;          <mxGeometry x="20" y="240" width="290" height="110" as="geometry"/>&#xa;        </mxCell>&#xa;        <mxCell id="bJzWxstoT6raJdL48ddy-32" value="Lista de Clientes" style="rounded=0;whiteSpace=wrap;html=1;" vertex="1" parent="bJzWxstoT6raJdL48ddy-28">&#xa;          <mxGeometry x="20" y="40" width="120" height="60" as="geometry"/>&#xa;        </mxCell>&#xa;        <mxCell id="bJzWxstoT6raJdL48ddy-33" value="Novo Cliente Fisico" style="rounded=0;whiteSpace=wrap;html=1;" vertex="1" parent="bJzWxstoT6raJdL48ddy-28">&#xa;          <mxGeometry x="150" y="40" width="120" height="60" as="geometry"/>&#xa;        </mxCell>&#xa;        <mxCell id="bJzWxstoT6raJdL48ddy-29" value="CadastrarClienteJuridico" style="swimlane;whiteSpace=wrap;html=1;" vertex="1" parent="bJzWxstoT6raJdL48ddy-1">&#xa;          <mxGeometry x="20" y="360" width="290" height="110" as="geometry"/>&#xa;        </mxCell>&#xa;        <mxCell id="bJzWxstoT6raJdL48ddy-34" value="Lista de Clientes" style="rounded=0;whiteSpace=wrap;html=1;" vertex="1" parent="bJzWxstoT6raJdL48ddy-29">&#xa;          <mxGeometry x="20" y="30" width="120" height="60" as="geometry"/>&#xa;        </mxCell>&#xa;        <mxCell id="bJzWxstoT6raJdL48ddy-35" value="Novo Cliente Juridico" style="rounded=0;whiteSpace=wrap;html=1;" vertex="1" parent="bJzWxstoT6raJdL48ddy-29">&#xa;          <mxGeometry x="150" y="30" width="120" height="60" as="geometry"/>&#xa;        </mxCell>&#xa;        <mxCell id="bJzWxstoT6raJdL48ddy-37" value="Buscador" style="swimlane;whiteSpace=wrap;html=1;" vertex="1" parent="1">&#xa;          <mxGeometry x="390" y="40" width="330" height="360" as="geometry"/>&#xa;        </mxCell>&#xa;        <mxCell id="bJzWxstoT6raJdL48ddy-38" value="Lista de Veículos" style="rounded=0;whiteSpace=wrap;html=1;" vertex="1" parent="bJzWxstoT6raJdL48ddy-37">&#xa;          <mxGeometry x="20" y="40" width="120" height="60" as="geometry"/>&#xa;        </mxCell>&#xa;        <mxCell id="bJzWxstoT6raJdL48ddy-39" value="Lista de Clientes" style="rounded=0;whiteSpace=wrap;html=1;" vertex="1" parent="bJzWxstoT6raJdL48ddy-37">&#xa;          <mxGeometry x="150" y="40" width="120" height="60" as="geometry"/>&#xa;        </mxCell>&#xa;        <mxCell id="bJzWxstoT6raJdL48ddy-40" value="BuscarVeiculo" style="swimlane;whiteSpace=wrap;html=1;" vertex="1" parent="bJzWxstoT6raJdL48ddy-37">&#xa;          <mxGeometry x="20" y="110" width="290" height="120" as="geometry"/>&#xa;        </mxCell>&#xa;        <mxCell id="bJzWxstoT6raJdL48ddy-41" value="Lista de Veículos" style="rounded=0;whiteSpace=wrap;html=1;" vertex="1" parent="bJzWxstoT6raJdL48ddy-40">&#xa;          <mxGeometry x="20" y="40" width="120" height="60" as="geometry"/>&#xa;        </mxCell>&#xa;        <mxCell id="bJzWxstoT6raJdL48ddy-42" value="Nome Veiculo" style="rounded=0;whiteSpace=wrap;html=1;" vertex="1" parent="bJzWxstoT6raJdL48ddy-40">&#xa;          <mxGeometry x="155" y="40" width="120" height="60" as="geometry"/>&#xa;        </mxCell>&#xa;        <mxCell id="bJzWxstoT6raJdL48ddy-43" value="BuscarCliente (CPF ou CNPJ ou Nome)" style="swimlane;whiteSpace=wrap;html=1;" vertex="1" parent="bJzWxstoT6raJdL48ddy-37">&#xa;          <mxGeometry x="20" y="240" width="290" height="110" as="geometry"/>&#xa;        </mxCell>&#xa;        <mxCell id="bJzWxstoT6raJdL48ddy-44" value="Lista de Clientes" style="rounded=0;whiteSpace=wrap;html=1;" vertex="1" parent="bJzWxstoT6raJdL48ddy-43">&#xa;          <mxGeometry x="20" y="40" width="120" height="60" as="geometry"/>&#xa;        </mxCell>&#xa;        <mxCell id="bJzWxstoT6raJdL48ddy-45" value="Identificador" style="rounded=0;whiteSpace=wrap;html=1;" vertex="1" parent="bJzWxstoT6raJdL48ddy-43">&#xa;          <mxGeometry x="150" y="40" width="120" height="60" as="geometry"/>&#xa;        </mxCell>&#xa;        <mxCell id="bJzWxstoT6raJdL48ddy-53" value="Modificador" style="swimlane;whiteSpace=wrap;html=1;" vertex="1" parent="1">&#xa;          <mxGeometry x="740" y="40" width="330" height="360" as="geometry"/>&#xa;        </mxCell>&#xa;        <mxCell id="bJzWxstoT6raJdL48ddy-54" value="Lista de Veículos" style="rounded=0;whiteSpace=wrap;html=1;" vertex="1" parent="bJzWxstoT6raJdL48ddy-53">&#xa;          <mxGeometry x="20" y="40" width="120" height="60" as="geometry"/>&#xa;        </mxCell>&#xa;        <mxCell id="bJzWxstoT6raJdL48ddy-55" value="Lista de Clientes" style="rounded=0;whiteSpace=wrap;html=1;" vertex="1" parent="bJzWxstoT6raJdL48ddy-53">&#xa;          <mxGeometry x="150" y="40" width="120" height="60" as="geometry"/>&#xa;        </mxCell>&#xa;        <mxCell id="bJzWxstoT6raJdL48ddy-56" value="Modificar" style="swimlane;whiteSpace=wrap;html=1;" vertex="1" parent="bJzWxstoT6raJdL48ddy-53">&#xa;          <mxGeometry x="20" y="110" width="290" height="120" as="geometry"/>&#xa;        </mxCell>&#xa;        <mxCell id="bJzWxstoT6raJdL48ddy-57" value="Lista de Veículos" style="rounded=0;whiteSpace=wrap;html=1;" vertex="1" parent="bJzWxstoT6raJdL48ddy-56">&#xa;          <mxGeometry x="20" y="40" width="120" height="60" as="geometry"/>&#xa;        </mxCell>&#xa;        <mxCell id="bJzWxstoT6raJdL48ddy-58" value="Nome Veiculo" style="rounded=0;whiteSpace=wrap;html=1;" vertex="1" parent="bJzWxstoT6raJdL48ddy-56">&#xa;          <mxGeometry x="155" y="40" width="120" height="60" as="geometry"/>&#xa;        </mxCell>&#xa;        <mxCell id="bJzWxstoT6raJdL48ddy-59" value="ModificarCliente (CPF ou CNPJ ou Nome)" style="swimlane;whiteSpace=wrap;html=1;" vertex="1" parent="bJzWxstoT6raJdL48ddy-53">&#xa;          <mxGeometry x="20" y="240" width="290" height="110" as="geometry"/>&#xa;        </mxCell>&#xa;        <mxCell id="bJzWxstoT6raJdL48ddy-60" value="Lista de Clientes" style="rounded=0;whiteSpace=wrap;html=1;" vertex="1" parent="bJzWxstoT6raJdL48ddy-59">&#xa;          <mxGeometry x="20" y="40" width="120" height="60" as="geometry"/>&#xa;        </mxCell>&#xa;        <mxCell id="bJzWxstoT6raJdL48ddy-61" value="Identificador" style="rounded=0;whiteSpace=wrap;html=1;" vertex="1" parent="bJzWxstoT6raJdL48ddy-59">&#xa;          <mxGeometry x="150" y="40" width="120" height="60" as="geometry"/>&#xa;        </mxCell>&#xa;        <mxCell id="bJzWxstoT6raJdL48ddy-62" value="Buscador" style="rounded=0;whiteSpace=wrap;html=1;" vertex="1" parent="1">&#xa;          <mxGeometry x="790" y="-40" width="120" height="60" as="geometry"/>&#xa;        </mxCell>&#xa;        <mxCell id="4JpqHaSeaDtscVndTjrB-1" value="Sistema" style="swimlane;whiteSpace=wrap;html=1;" vertex="1" parent="1">&#xa;          <mxGeometry x="1090" y="40" width="330" height="510" as="geometry"/>&#xa;        </mxCell>&#xa;        <mxCell id="4JpqHaSeaDtscVndTjrB-2" value="Lista de Veículos" style="rounded=0;whiteSpace=wrap;html=1;" vertex="1" parent="4JpqHaSeaDtscVndTjrB-1">&#xa;          <mxGeometry x="20" y="40" width="120" height="60" as="geometry"/>&#xa;        </mxCell>&#xa;        <mxCell id="4JpqHaSeaDtscVndTjrB-3" value="Lista de Clientes" style="rounded=0;whiteSpace=wrap;html=1;" vertex="1" parent="4JpqHaSeaDtscVndTjrB-1">&#xa;          <mxGeometry x="150" y="40" width="120" height="60" as="geometry"/>&#xa;        </mxCell>&#xa;        <mxCell id="4JpqHaSeaDtscVndTjrB-4" value="Alugar" style="swimlane;whiteSpace=wrap;html=1;" vertex="1" parent="4JpqHaSeaDtscVndTjrB-1">&#xa;          <mxGeometry x="20" y="250" width="290" height="120" as="geometry"/>&#xa;        </mxCell>&#xa;        <mxCell id="4JpqHaSeaDtscVndTjrB-5" value="Lista de Veículos" style="rounded=0;whiteSpace=wrap;html=1;" vertex="1" parent="4JpqHaSeaDtscVndTjrB-4">&#xa;          <mxGeometry x="20" y="40" width="120" height="60" as="geometry"/>&#xa;        </mxCell>&#xa;        <mxCell id="4JpqHaSeaDtscVndTjrB-11" value="Lista de Clientes" style="rounded=0;whiteSpace=wrap;html=1;" vertex="1" parent="4JpqHaSeaDtscVndTjrB-4">&#xa;          <mxGeometry x="150" y="40" width="120" height="60" as="geometry"/>&#xa;        </mxCell>&#xa;        <mxCell id="4JpqHaSeaDtscVndTjrB-7" value="Devolver" style="swimlane;whiteSpace=wrap;html=1;" vertex="1" parent="4JpqHaSeaDtscVndTjrB-1">&#xa;          <mxGeometry x="20" y="380" width="290" height="110" as="geometry"/>&#xa;        </mxCell>&#xa;        <mxCell id="4JpqHaSeaDtscVndTjrB-8" value="Lista de Clientes" style="rounded=0;whiteSpace=wrap;html=1;" vertex="1" parent="4JpqHaSeaDtscVndTjrB-7">&#xa;          <mxGeometry x="150" y="40" width="120" height="60" as="geometry"/>&#xa;        </mxCell>&#xa;        <mxCell id="4JpqHaSeaDtscVndTjrB-12" value="Lista de Veículos" style="rounded=0;whiteSpace=wrap;html=1;" vertex="1" parent="4JpqHaSeaDtscVndTjrB-7">&#xa;          <mxGeometry x="20" y="40" width="120" height="60" as="geometry"/>&#xa;        </mxCell>&#xa;        <mxCell id="5qy9yBSMPfCRi8DZeOGu-2" value="Buscador" style="rounded=0;whiteSpace=wrap;html=1;" vertex="1" parent="4JpqHaSeaDtscVndTjrB-1">&#xa;          <mxGeometry x="20" y="110" width="120" height="60" as="geometry"/>&#xa;        </mxCell>&#xa;        <mxCell id="5qy9yBSMPfCRi8DZeOGu-3" value="Modificador" style="rounded=0;whiteSpace=wrap;html=1;" vertex="1" parent="4JpqHaSeaDtscVndTjrB-1">&#xa;          <mxGeometry x="150" y="110" width="120" height="60" as="geometry"/>&#xa;        </mxCell>&#xa;        <mxCell id="5qy9yBSMPfCRi8DZeOGu-4" value="Cadastrador" style="rounded=0;whiteSpace=wrap;html=1;" vertex="1" parent="4JpqHaSeaDtscVndTjrB-1">&#xa;          <mxGeometry x="20" y="180" width="120" height="60" as="geometry"/>&#xa;        </mxCell>&#xa;        <mxCell id="5qy9yBSMPfCRi8DZeOGu-5" value="UI" style="swimlane;whiteSpace=wrap;html=1;" vertex="1" parent="1">&#xa;          <mxGeometry x="390" y="420" width="680" height="620" as="geometry"/>&#xa;        </mxCell>&#xa;        <mxCell id="oj2ZnTbbt0q5bT36z9zm-2" style="edgeStyle=orthogonalEdgeStyle;rounded=0;orthogonalLoop=1;jettySize=auto;html=1;exitX=1;exitY=0.25;exitDx=0;exitDy=0;entryX=0;entryY=0.5;entryDx=0;entryDy=0;" edge="1" parent="5qy9yBSMPfCRi8DZeOGu-5" source="oj2ZnTbbt0q5bT36z9zm-1" target="oj2ZnTbbt0q5bT36z9zm-3">&#xa;          <mxGeometry relative="1" as="geometry">&#xa;            <mxPoint x="290" y="80" as="targetPoint"/>&#xa;          </mxGeometry>&#xa;        </mxCell>&#xa;        <mxCell id="oj2ZnTbbt0q5bT36z9zm-1" value="&lt;div&gt;MENU ITERATIVO&lt;br&gt;&lt;/div&gt;&lt;div&gt;&lt;br&gt;&lt;/div&gt;&lt;div&gt;1. Cadastro Veiculo&lt;/div&gt;&lt;div&gt;2. Alterar Cadastro Veiculo&lt;/div&gt;&lt;div&gt;3. Buscar Veiculo&lt;/div&gt;&lt;div&gt;4. Cadastrar Cliente&lt;/div&gt;&lt;div&gt;5. Alterar Cliente&lt;/div&gt;&lt;div&gt;6. Alugar Veiculo&lt;/div&gt;&lt;div&gt;7. Devolver Veiculo&lt;/div&gt;&lt;div&gt;0. Sair do Sistema&lt;br&gt;&lt;/div&gt;" style="rounded=0;whiteSpace=wrap;html=1;" vertex="1" parent="5qy9yBSMPfCRi8DZeOGu-5">&#xa;          <mxGeometry x="20" y="40" width="120" height="230" as="geometry"/>&#xa;        </mxCell>&#xa;        <mxCell id="oj2ZnTbbt0q5bT36z9zm-3" value="1. Cadastrar Veículo" style="swimlane;whiteSpace=wrap;html=1;" vertex="1" parent="5qy9yBSMPfCRi8DZeOGu-5">&#xa;          <mxGeometry x="190" y="40" width="140" height="180" as="geometry"/>&#xa;        </mxCell>&#xa;        <mxCell id="oj2ZnTbbt0q5bT36z9zm-5" value="Input Usuário" style="rounded=0;whiteSpace=wrap;html=1;" vertex="1" parent="oj2ZnTbbt0q5bT36z9zm-3">&#xa;          <mxGeometry x="10" y="30" width="120" height="40" as="geometry"/>&#xa;        </mxCell>&#xa;        <mxCell id="oj2ZnTbbt0q5bT36z9zm-6" value="Cadastrador" style="rounded=0;whiteSpace=wrap;html=1;" vertex="1" parent="oj2ZnTbbt0q5bT36z9zm-3">&#xa;          <mxGeometry x="10" y="80" width="120" height="40" as="geometry"/>&#xa;        </mxCell>&#xa;        <mxCell id="oj2ZnTbbt0q5bT36z9zm-7" value="Mensagem (Sucesso ou Não)" style="rounded=0;whiteSpace=wrap;html=1;" vertex="1" parent="oj2ZnTbbt0q5bT36z9zm-3">&#xa;          <mxGeometry x="10" y="130" width="120" height="40" as="geometry"/>&#xa;        </mxCell>&#xa;        <mxCell id="oj2ZnTbbt0q5bT36z9zm-8" value="2. Alterar Veículo" style="swimlane;whiteSpace=wrap;html=1;" vertex="1" parent="5qy9yBSMPfCRi8DZeOGu-5">&#xa;          <mxGeometry x="350" y="40" width="140" height="180" as="geometry"/>&#xa;        </mxCell>&#xa;        <mxCell id="oj2ZnTbbt0q5bT36z9zm-9" value="Input Usuário (Veiculo)" style="rounded=0;whiteSpace=wrap;html=1;" vertex="1" parent="oj2ZnTbbt0q5bT36z9zm-8">&#xa;          <mxGeometry x="10" y="30" width="120" height="40" as="geometry"/>&#xa;        </mxCell>&#xa;        <mxCell id="oj2ZnTbbt0q5bT36z9zm-10" value="Modificador" style="rounded=0;whiteSpace=wrap;html=1;" vertex="1" parent="oj2ZnTbbt0q5bT36z9zm-8">&#xa;          <mxGeometry x="10" y="80" width="120" height="40" as="geometry"/>&#xa;        </mxCell>&#xa;        <mxCell id="oj2ZnTbbt0q5bT36z9zm-11" value="Mensagem (Sucesso ou Não)" style="rounded=0;whiteSpace=wrap;html=1;" vertex="1" parent="oj2ZnTbbt0q5bT36z9zm-8">&#xa;          <mxGeometry x="10" y="130" width="120" height="40" as="geometry"/>&#xa;        </mxCell>&#xa;        <mxCell id="oj2ZnTbbt0q5bT36z9zm-12" value="3. Buscar Veiculo" style="swimlane;whiteSpace=wrap;html=1;" vertex="1" parent="5qy9yBSMPfCRi8DZeOGu-5">&#xa;          <mxGeometry x="510" y="40" width="140" height="180" as="geometry"/>&#xa;        </mxCell>&#xa;        <mxCell id="oj2ZnTbbt0q5bT36z9zm-13" value="Input Usuário (Veiculo)" style="rounded=0;whiteSpace=wrap;html=1;" vertex="1" parent="oj2ZnTbbt0q5bT36z9zm-12">&#xa;          <mxGeometry x="10" y="30" width="120" height="40" as="geometry"/>&#xa;        </mxCell>&#xa;        <mxCell id="oj2ZnTbbt0q5bT36z9zm-14" value="Buscador" style="rounded=0;whiteSpace=wrap;html=1;" vertex="1" parent="oj2ZnTbbt0q5bT36z9zm-12">&#xa;          <mxGeometry x="10" y="80" width="120" height="40" as="geometry"/>&#xa;        </mxCell>&#xa;        <mxCell id="oj2ZnTbbt0q5bT36z9zm-15" value="Mensagem (Sucesso ou Não)" style="rounded=0;whiteSpace=wrap;html=1;" vertex="1" parent="oj2ZnTbbt0q5bT36z9zm-12">&#xa;          <mxGeometry x="10" y="130" width="120" height="40" as="geometry"/>&#xa;        </mxCell>&#xa;        <mxCell id="oj2ZnTbbt0q5bT36z9zm-16" value="4. Cadastrar Cliente" style="swimlane;whiteSpace=wrap;html=1;" vertex="1" parent="5qy9yBSMPfCRi8DZeOGu-5">&#xa;          <mxGeometry x="190" y="230" width="140" height="180" as="geometry"/>&#xa;        </mxCell>&#xa;        <mxCell id="oj2ZnTbbt0q5bT36z9zm-17" value="Input Usuário" style="rounded=0;whiteSpace=wrap;html=1;" vertex="1" parent="oj2ZnTbbt0q5bT36z9zm-16">&#xa;          <mxGeometry x="10" y="30" width="120" height="40" as="geometry"/>&#xa;        </mxCell>&#xa;        <mxCell id="oj2ZnTbbt0q5bT36z9zm-18" value="Cadastrador" style="rounded=0;whiteSpace=wrap;html=1;" vertex="1" parent="oj2ZnTbbt0q5bT36z9zm-16">&#xa;          <mxGeometry x="10" y="80" width="120" height="40" as="geometry"/>&#xa;        </mxCell>&#xa;        <mxCell id="oj2ZnTbbt0q5bT36z9zm-19" value="Mensagem (Sucesso ou Não)" style="rounded=0;whiteSpace=wrap;html=1;" vertex="1" parent="oj2ZnTbbt0q5bT36z9zm-16">&#xa;          <mxGeometry x="10" y="130" width="120" height="40" as="geometry"/>&#xa;        </mxCell>&#xa;        <mxCell id="oj2ZnTbbt0q5bT36z9zm-20" value="5. Alterar Cliente" style="swimlane;whiteSpace=wrap;html=1;" vertex="1" parent="5qy9yBSMPfCRi8DZeOGu-5">&#xa;          <mxGeometry x="350" y="230" width="140" height="180" as="geometry"/>&#xa;        </mxCell>&#xa;        <mxCell id="oj2ZnTbbt0q5bT36z9zm-21" value="Input Usuário (Cliente)" style="rounded=0;whiteSpace=wrap;html=1;" vertex="1" parent="oj2ZnTbbt0q5bT36z9zm-20">&#xa;          <mxGeometry x="10" y="30" width="120" height="40" as="geometry"/>&#xa;        </mxCell>&#xa;        <mxCell id="oj2ZnTbbt0q5bT36z9zm-22" value="Modificador" style="rounded=0;whiteSpace=wrap;html=1;" vertex="1" parent="oj2ZnTbbt0q5bT36z9zm-20">&#xa;          <mxGeometry x="10" y="80" width="120" height="40" as="geometry"/>&#xa;        </mxCell>&#xa;        <mxCell id="oj2ZnTbbt0q5bT36z9zm-23" value="Mensagem (Sucesso ou Não)" style="rounded=0;whiteSpace=wrap;html=1;" vertex="1" parent="oj2ZnTbbt0q5bT36z9zm-20">&#xa;          <mxGeometry x="10" y="130" width="120" height="40" as="geometry"/>&#xa;        </mxCell>&#xa;        <mxCell id="oj2ZnTbbt0q5bT36z9zm-28" value="7. Alugar Veiculo" style="swimlane;whiteSpace=wrap;html=1;" vertex="1" parent="5qy9yBSMPfCRi8DZeOGu-5">&#xa;          <mxGeometry x="190" y="420" width="140" height="180" as="geometry"/>&#xa;        </mxCell>&#xa;        <mxCell id="oj2ZnTbbt0q5bT36z9zm-29" value="Input Usuário" style="rounded=0;whiteSpace=wrap;html=1;" vertex="1" parent="oj2ZnTbbt0q5bT36z9zm-28">&#xa;          <mxGeometry x="10" y="30" width="120" height="40" as="geometry"/>&#xa;        </mxCell>&#xa;        <mxCell id="oj2ZnTbbt0q5bT36z9zm-30" value="Cadastrador" style="rounded=0;whiteSpace=wrap;html=1;" vertex="1" parent="oj2ZnTbbt0q5bT36z9zm-28">&#xa;          <mxGeometry x="10" y="80" width="120" height="40" as="geometry"/>&#xa;        </mxCell>&#xa;        <mxCell id="oj2ZnTbbt0q5bT36z9zm-31" value="Mensagem (Sucesso ou Não)" style="rounded=0;whiteSpace=wrap;html=1;" vertex="1" parent="oj2ZnTbbt0q5bT36z9zm-28">&#xa;          <mxGeometry x="10" y="130" width="120" height="40" as="geometry"/>&#xa;        </mxCell>&#xa;        <mxCell id="XqhCVlw7YS-wfD1kZmW--1" value="6. Buscar Cliente" style="swimlane;whiteSpace=wrap;html=1;" vertex="1" parent="5qy9yBSMPfCRi8DZeOGu-5">&#xa;          <mxGeometry x="510" y="230" width="140" height="180" as="geometry"/>&#xa;        </mxCell>&#xa;        <mxCell id="XqhCVlw7YS-wfD1kZmW--2" value="Input Usuário (Cliente)" style="rounded=0;whiteSpace=wrap;html=1;" vertex="1" parent="XqhCVlw7YS-wfD1kZmW--1">&#xa;          <mxGeometry x="10" y="30" width="120" height="40" as="geometry"/>&#xa;        </mxCell>&#xa;        <mxCell id="XqhCVlw7YS-wfD1kZmW--3" value="Buscador" style="rounded=0;whiteSpace=wrap;html=1;" vertex="1" parent="XqhCVlw7YS-wfD1kZmW--1">&#xa;          <mxGeometry x="10" y="80" width="120" height="40" as="geometry"/>&#xa;        </mxCell>&#xa;        <mxCell id="XqhCVlw7YS-wfD1kZmW--4" value="Mensagem (Sucesso ou Não)" style="rounded=0;whiteSpace=wrap;html=1;" vertex="1" parent="XqhCVlw7YS-wfD1kZmW--1">&#xa;          <mxGeometry x="10" y="130" width="120" height="40" as="geometry"/>&#xa;        </mxCell>&#xa;        <mxCell id="XqhCVlw7YS-wfD1kZmW--5" value="8. Devolver Veículo" style="swimlane;whiteSpace=wrap;html=1;" vertex="1" parent="5qy9yBSMPfCRi8DZeOGu-5">&#xa;          <mxGeometry x="350" y="420" width="140" height="180" as="geometry"/>&#xa;        </mxCell>&#xa;        <mxCell id="XqhCVlw7YS-wfD1kZmW--6" value="Input Usuário" style="rounded=0;whiteSpace=wrap;html=1;" vertex="1" parent="XqhCVlw7YS-wfD1kZmW--5">&#xa;          <mxGeometry x="10" y="30" width="120" height="40" as="geometry"/>&#xa;        </mxCell>&#xa;        <mxCell id="XqhCVlw7YS-wfD1kZmW--7" value="Cadastrador" style="rounded=0;whiteSpace=wrap;html=1;" vertex="1" parent="XqhCVlw7YS-wfD1kZmW--5">&#xa;          <mxGeometry x="10" y="80" width="120" height="40" as="geometry"/>&#xa;        </mxCell>&#xa;        <mxCell id="XqhCVlw7YS-wfD1kZmW--8" value="Mensagem (Sucesso ou Não)" style="rounded=0;whiteSpace=wrap;html=1;" vertex="1" parent="XqhCVlw7YS-wfD1kZmW--5">&#xa;          <mxGeometry x="10" y="130" width="120" height="40" as="geometry"/>&#xa;        </mxCell>&#xa;        <mxCell id="XqhCVlw7YS-wfD1kZmW--9" value="0. Sair" style="swimlane;whiteSpace=wrap;html=1;" vertex="1" parent="5qy9yBSMPfCRi8DZeOGu-5">&#xa;          <mxGeometry x="510" y="420" width="140" height="180" as="geometry"/>&#xa;        </mxCell>&#xa;        <mxCell id="XqhCVlw7YS-wfD1kZmW--12" value="Mensagem (&quot;Até mais, mundo!&quot;)" style="rounded=0;whiteSpace=wrap;html=1;" vertex="1" parent="XqhCVlw7YS-wfD1kZmW--9">&#xa;          <mxGeometry x="10" y="70" width="120" height="40" as="geometry"/>&#xa;        </mxCell>&#xa;      </root>&#xa;    </mxGraphModel>&#xa;  </diagram><diagram id="gajDv4HkV_QxK6il2Xfn" name="Page-3"><mxGraphModel dx="411" dy="732" grid="1" gridSize="10" guides="1" tooltips="1" connect="1" arrows="1" fold="1" page="1" pageScale="1" pageWidth="850" pageHeight="1100" math="0" shadow="0"><root><mxCell id="0"/><mxCell id="1" parent="0"/><mxCell id="9-2hYd7bypdEiD8PUzCg-21" value="Cliente" style="swimlane;fontStyle=0;childLayout=stackLayout;horizontal=1;startSize=30;horizontalStack=0;resizeParent=1;resizeParentMax=0;resizeLast=0;collapsible=1;marginBottom=0;whiteSpace=wrap;html=1;" parent="1" vertex="1"><mxGeometry x="20" y="20" width="140" height="120" as="geometry"/></mxCell><mxCell id="9-2hYd7bypdEiD8PUzCg-22" value="Nome&lt;span style=&quot;white-space: pre;&quot;&gt;&#9;&lt;/span&gt;" style="text;strokeColor=none;fillColor=none;align=left;verticalAlign=middle;spacingLeft=4;spacingRight=4;overflow=hidden;points=[[0,0.5],[1,0.5]];portConstraint=eastwest;rotatable=0;whiteSpace=wrap;html=1;" parent="9-2hYd7bypdEiD8PUzCg-21" vertex="1"><mxGeometry y="30" width="140" height="30" as="geometry"/></mxCell><mxCell id="9-2hYd7bypdEiD8PUzCg-25" value="Endereço" style="text;strokeColor=none;fillColor=none;align=left;verticalAlign=middle;spacingLeft=4;spacingRight=4;overflow=hidden;points=[[0,0.5],[1,0.5]];portConstraint=eastwest;rotatable=0;whiteSpace=wrap;html=1;" parent="9-2hYd7bypdEiD8PUzCg-21" vertex="1"><mxGeometry y="60" width="140" height="30" as="geometry"/></mxCell><mxCell id="Ujp4lEiUETWPv15hTl80-9" value="CarrosAlugados" style="text;strokeColor=none;fillColor=none;align=left;verticalAlign=middle;spacingLeft=4;spacingRight=4;overflow=hidden;points=[[0,0.5],[1,0.5]];portConstraint=eastwest;rotatable=0;whiteSpace=wrap;html=1;" parent="9-2hYd7bypdEiD8PUzCg-21" vertex="1"><mxGeometry y="90" width="140" height="30" as="geometry"/></mxCell><mxCell id="Ujp4lEiUETWPv15hTl80-1" value="ClienteFísico" style="swimlane;fontStyle=0;childLayout=stackLayout;horizontal=1;startSize=30;horizontalStack=0;resizeParent=1;resizeParentMax=0;resizeLast=0;collapsible=1;marginBottom=0;whiteSpace=wrap;html=1;" parent="1" vertex="1"><mxGeometry x="20" y="160" width="140" height="60" as="geometry"/></mxCell><mxCell id="Ujp4lEiUETWPv15hTl80-2" value="CPF" style="text;strokeColor=none;fillColor=none;align=left;verticalAlign=middle;spacingLeft=4;spacingRight=4;overflow=hidden;points=[[0,0.5],[1,0.5]];portConstraint=eastwest;rotatable=0;whiteSpace=wrap;html=1;" parent="Ujp4lEiUETWPv15hTl80-1" vertex="1"><mxGeometry y="30" width="140" height="30" as="geometry"/></mxCell><mxCell id="Ujp4lEiUETWPv15hTl80-4" value="ClienteJurídico" style="swimlane;fontStyle=0;childLayout=stackLayout;horizontal=1;startSize=30;horizontalStack=0;resizeParent=1;resizeParentMax=0;resizeLast=0;collapsible=1;marginBottom=0;whiteSpace=wrap;html=1;" parent="1" vertex="1"><mxGeometry x="180" y="160" width="140" height="60" as="geometry"/></mxCell><mxCell id="Ujp4lEiUETWPv15hTl80-5" value="CNPJ" style="text;strokeColor=none;fillColor=none;align=left;verticalAlign=middle;spacingLeft=4;spacingRight=4;overflow=hidden;points=[[0,0.5],[1,0.5]];portConstraint=eastwest;rotatable=0;whiteSpace=wrap;html=1;" parent="Ujp4lEiUETWPv15hTl80-4" vertex="1"><mxGeometry y="30" width="140" height="30" as="geometry"/></mxCell><mxCell id="Ujp4lEiUETWPv15hTl80-6" value="Veiculo" style="swimlane;fontStyle=0;childLayout=stackLayout;horizontal=1;startSize=30;horizontalStack=0;resizeParent=1;resizeParentMax=0;resizeLast=0;collapsible=1;marginBottom=0;whiteSpace=wrap;html=1;" parent="1" vertex="1"><mxGeometry x="355" y="20" width="140" height="210" as="geometry"/></mxCell><mxCell id="Ujp4lEiUETWPv15hTl80-7" value="Modelo" style="text;strokeColor=none;fillColor=none;align=left;verticalAlign=middle;spacingLeft=4;spacingRight=4;overflow=hidden;points=[[0,0.5],[1,0.5]];portConstraint=eastwest;rotatable=0;whiteSpace=wrap;html=1;" parent="Ujp4lEiUETWPv15hTl80-6" vertex="1"><mxGeometry y="30" width="140" height="30" as="geometry"/></mxCell><mxCell id="Ujp4lEiUETWPv15hTl80-8" value="Marca" style="text;strokeColor=none;fillColor=none;align=left;verticalAlign=middle;spacingLeft=4;spacingRight=4;overflow=hidden;points=[[0,0.5],[1,0.5]];portConstraint=eastwest;rotatable=0;whiteSpace=wrap;html=1;" parent="Ujp4lEiUETWPv15hTl80-6" vertex="1"><mxGeometry y="60" width="140" height="30" as="geometry"/></mxCell><mxCell id="Ujp4lEiUETWPv15hTl80-10" value="Placa" style="text;strokeColor=none;fillColor=none;align=left;verticalAlign=middle;spacingLeft=4;spacingRight=4;overflow=hidden;points=[[0,0.5],[1,0.5]];portConstraint=eastwest;rotatable=0;whiteSpace=wrap;html=1;" parent="Ujp4lEiUETWPv15hTl80-6" vertex="1"><mxGeometry y="90" width="140" height="30" as="geometry"/></mxCell><mxCell id="Ujp4lEiUETWPv15hTl80-11" value="Cor" style="text;strokeColor=none;fillColor=none;align=left;verticalAlign=middle;spacingLeft=4;spacingRight=4;overflow=hidden;points=[[0,0.5],[1,0.5]];portConstraint=eastwest;rotatable=0;whiteSpace=wrap;html=1;" parent="Ujp4lEiUETWPv15hTl80-6" vertex="1"><mxGeometry y="120" width="140" height="30" as="geometry"/></mxCell><mxCell id="Ujp4lEiUETWPv15hTl80-12" value="Tamanho" style="text;strokeColor=none;fillColor=none;align=left;verticalAlign=middle;spacingLeft=4;spacingRight=4;overflow=hidden;points=[[0,0.5],[1,0.5]];portConstraint=eastwest;rotatable=0;whiteSpace=wrap;html=1;" parent="Ujp4lEiUETWPv15hTl80-6" vertex="1"><mxGeometry y="150" width="140" height="30" as="geometry"/></mxCell><mxCell id="Ujp4lEiUETWPv15hTl80-13" value="toString()" style="text;strokeColor=none;fillColor=none;align=left;verticalAlign=middle;spacingLeft=4;spacingRight=4;overflow=hidden;points=[[0,0.5],[1,0.5]];portConstraint=eastwest;rotatable=0;whiteSpace=wrap;html=1;" parent="Ujp4lEiUETWPv15hTl80-6" vertex="1"><mxGeometry y="180" width="140" height="30" as="geometry"/></mxCell><mxCell id="OcNzbitqOUnuF_-hN4ot-2" value="IFisico" style="swimlane;fontStyle=0;childLayout=stackLayout;horizontal=1;startSize=30;horizontalStack=0;resizeParent=1;resizeParentMax=0;resizeLast=0;collapsible=1;marginBottom=0;whiteSpace=wrap;html=1;" parent="1" vertex="1"><mxGeometry x="20" y="230" width="140" height="60" as="geometry"/></mxCell><mxCell id="OcNzbitqOUnuF_-hN4ot-3" value="toString()" style="text;strokeColor=none;fillColor=none;align=left;verticalAlign=middle;spacingLeft=4;spacingRight=4;overflow=hidden;points=[[0,0.5],[1,0.5]];portConstraint=eastwest;rotatable=0;whiteSpace=wrap;html=1;" parent="OcNzbitqOUnuF_-hN4ot-2" vertex="1"><mxGeometry y="30" width="140" height="30" as="geometry"/></mxCell><mxCell id="OcNzbitqOUnuF_-hN4ot-4" value="IJuridico" style="swimlane;fontStyle=0;childLayout=stackLayout;horizontal=1;startSize=30;horizontalStack=0;resizeParent=1;resizeParentMax=0;resizeLast=0;collapsible=1;marginBottom=0;whiteSpace=wrap;html=1;" parent="1" vertex="1"><mxGeometry x="180" y="230" width="140" height="60" as="geometry"/></mxCell><mxCell id="OcNzbitqOUnuF_-hN4ot-5" value="toString()" style="text;strokeColor=none;fillColor=none;align=left;verticalAlign=middle;spacingLeft=4;spacingRight=4;overflow=hidden;points=[[0,0.5],[1,0.5]];portConstraint=eastwest;rotatable=0;whiteSpace=wrap;html=1;" parent="OcNzbitqOUnuF_-hN4ot-4" vertex="1"><mxGeometry y="30" width="140" height="30" as="geometry"/></mxCell></root></mxGraphModel></diagram></mxfile>